FILE "Pia Carrot e Youkoso!! (1997)(NEC Home Electronics)(JP)[FXNKT701][FXNKT702].img" BINARY
  TRACK 01 AUDIO
    INDEX 01 00:00:00
  TRACK 02 MODE1/2352
    PREGAP 00:03:00
    INDEX 01 01:29:23
  TRACK 03 AUDIO
    PREGAP 00:02:00
    INDEX 01 65:15:30
  TRACK 04 AUDIO
    INDEX 01 66:45:20
  TRACK 05 AUDIO
    INDEX 01 68:16:52
